<svg width="446" height="118" viewBox="0 0 446 118" fill="none" xmlns="http://www.w3.org/2000/svg">
<path d="M13.8516 32.2734C13.9141 32.3203 14.0938 32.3438 14.3906 32.3438C14.6875 32.3438 14.9141 32.2266 15.0703 31.9922C15.2266 31.7578 15.3047 31.375 15.3047 30.8438V29.0625C15.3047 28.5 15.2344 28.1016 15.0938 27.8672C14.9688 27.6172 14.75 27.4922 14.4375 27.4922C14.1406 27.4922 13.9375 27.5234 13.8281 27.5859C13.8438 27.6641 13.8516 27.7969 13.8516 27.9844V32.2734ZM14.4375 42.8672V46.4531C13.75 47.0312 12.7812 47.5078 11.5312 47.8828C10.2812 48.2422 8.97656 48.4219 7.61719 48.4219C5.67969 48.4219 4.09375 48.0469 2.85938 47.2969C1.45312 46.4375 0.75 45.1953 0.75 43.5703V21.3047C0.75 20.8047 1.08594 20.3047 1.75781 19.8047C2.44531 19.3047 3.39062 18.8516 4.59375 18.4453C7.17188 17.5703 10.1172 17.1328 13.4297 17.1328C18.0078 17.1328 21.6562 18.2734 24.375 20.5547C27.0938 22.8359 28.4531 25.9062 28.4531 29.7656C28.4531 33.6094 27.2266 36.6016 24.7734 38.7422C22.4141 40.7734 19.1406 41.7891 14.9531 41.7891C14 41.7891 12.9766 41.6797 11.8828 41.4609C10.8047 41.2266 10.0781 41.0234 9.70312 40.8516C9.57812 40.9766 9.51562 41.1484 9.51562 41.3672C9.51562 42.1641 11.1562 42.6641 14.4375 42.8672ZM52.1016 36.3984C52.1016 37.5234 52.2266 38.4297 52.4766 39.1172C52.7266 39.8047 53.1641 40.3438 53.7891 40.7344C53.8047 40.8125 53.8125 40.9609 53.8125 41.1797V41.6016C53.8125 43.8203 53.1406 45.5469 51.7969 46.7812C50.6094 47.875 49.1406 48.4219 47.3906 48.4219C46.2031 48.4219 45.1172 48.1406 44.1328 47.5781C43.1484 47.0156 42.4453 46.2031 42.0234 45.1406C41.4922 45.1406 41.2266 45.3984 41.2266 45.9141C41.2266 46.3516 41.5 46.8438 42.0469 47.3906C41.0312 48.0781 39.5 48.4219 37.4531 48.4219C34.5625 48.4219 32.25 47.6406 30.5156 46.0781C28.7969 44.5 27.9375 42.3047 27.9375 39.4922C27.9375 36.6641 28.8516 34.4766 30.6797 32.9297C32.3516 31.5391 34.5156 30.8438 37.1719 30.8438C38.0781 30.8438 38.9531 30.9062 39.7969 31.0312C40.3594 31.1406 40.6641 31.2031 40.7109 31.2188C40.7578 31.0625 40.7812 30.9297 40.7812 30.8203C40.7812 30.4141 40.4375 30.1406 39.75 30C39.0625 29.8594 38.1641 29.7891 37.0547 29.7891C34.6953 29.7891 32.6797 30.2656 31.0078 31.2188C30.2422 29.9219 29.8594 28.2812 29.8594 26.2969C29.8594 25.1719 30 24.3359 30.2812 23.7891C31.4062 23.2734 32.8359 22.8203 34.5703 22.4297C36.3047 22.0234 38.1328 21.8203 40.0547 21.8203C44.0234 21.8203 47.0234 22.6875 49.0547 24.4219C51.0859 26.1562 52.1016 28.6172 52.1016 31.8047V36.3984ZM39.9375 37.5469C39.2812 37.5469 38.9531 37.8438 38.9531 38.4375C38.9531 39 39.3359 39.2812 40.1016 39.2812C40.6328 39.2812 41.0234 39.1562 41.2734 38.9062C41.5234 38.6406 41.6484 38.1875 41.6484 37.5469C41.6484 37.5469 41.0781 37.5469 39.9375 37.5469ZM65.3672 34.9453C65.3672 35.8516 65.4062 36.4609 65.4844 36.7734C65.5781 37.2734 65.8359 37.5234 66.2578 37.5234H66.4688C66.5156 37.5234 66.5859 37.5078 66.6797 37.4766C66.6328 37.0547 66.6094 36.4453 66.6094 35.6484C66.6094 34.8516 66.6484 33.5469 66.7266 31.7344C66.8047 29.9219 66.8438 27.2812 66.8438 23.8125C68.3906 22.75 70.1641 22.2188 72.1641 22.2188C73.7266 22.2188 75.0156 22.5234 76.0312 23.1328C77.0625 23.7422 77.7734 24.6094 78.1641 25.7344C78.1641 26.2656 78.1094 27.3516 78 28.9922C77.6719 32.9141 77.1953 35.8828 76.5703 37.8984C76.7422 37.9922 76.9219 38.0391 77.1094 38.0391C77.3125 38.0391 77.4688 37.9766 77.5781 37.8516C78.0312 37.3359 78.4609 35.4766 78.8672 32.2734C79.1953 29.1484 79.3984 26.75 79.4766 25.0781C79.4922 24.4844 79.5156 24.0312 79.5469 23.7188C80.1406 23.2656 80.9297 22.9062 81.9141 22.6406C82.9141 22.3594 83.9531 22.2188 85.0312 22.2188C86.8594 22.2188 88.3516 22.7266 89.5078 23.7422C90.6641 24.7422 91.2422 26.0859 91.2422 27.7734C91.2422 29.0234 90.9922 30.7344 90.4922 32.9062C89.9922 35.0781 89.3125 37.3906 88.4531 39.8438C87.5938 42.2812 86.8984 43.9844 86.3672 44.9531C85.6172 46.2969 84.7188 47.2109 83.6719 47.6953C82.6406 48.1797 81.0391 48.4219 78.8672 48.4219C78.2109 48.4219 77.3594 48.3516 76.3125 48.2109C75.2656 48.0703 74.5469 47.9219 74.1562 47.7656C73.8281 47.2344 73.4375 46.4531 72.9844 45.4219C72.5469 44.3906 72.2344 43.5938 72.0469 43.0312C71.4531 43.125 71.1562 43.3828 71.1562 43.8047C71.1562 43.9297 71.2578 44.2812 71.4609 44.8594C71.6641 45.4219 71.8125 45.8047 71.9062 46.0078C71.8594 46.1016 71.7422 46.3516 71.5547 46.7578C71.3672 47.1484 71.1641 47.4922 70.9453 47.7891C69.7422 48.2109 68 48.4219 65.7188 48.4219C63.4531 48.4219 61.5156 48.1016 59.9062 47.4609C58.6562 45.7422 57.5703 43.6875 56.6484 41.2969C55.7422 38.9062 54.9766 35.8438 54.3516 32.1094C53.3203 30.7656 52.8047 29.1484 52.8047 27.2578C52.8047 25.3672 53.2734 23.7266 54.2109 22.3359H59.8828C62.1016 22.3359 63.6484 22.8594 64.5234 23.9062C65.1953 24.7188 65.5312 26.0312 65.5312 27.8438L65.3672 34.9453ZM105.07 29.625C104.664 29.75 104.461 29.9922 104.461 30.3516V30.4688C104.461 30.5469 104.469 30.5938 104.484 30.6094C104.656 30.5938 104.883 30.5859 105.164 30.5859H105.727C107.508 30.5859 109.172 30.8594 110.719 31.4062C112.281 31.9375 113.555 32.7969 114.539 33.9844C115.633 35.3281 116.18 37.0234 116.18 39.0703C116.18 42.2578 115.078 44.6641 112.875 46.2891C110.672 47.9141 107.727 48.7266 104.039 48.7266C100.352 48.7266 97.4609 48.1172 95.3672 46.8984C93.2891 45.6797 92.25 43.8906 92.25 41.5312C92.25 40.6562 92.4375 39.8594 92.8125 39.1406C93.1875 38.4062 93.6094 37.8906 94.0781 37.5938C94.9375 38.3125 96.1797 38.9375 97.8047 39.4688C99.4453 39.9844 101.18 40.2422 103.008 40.2422C103.742 40.2422 104.109 40.0391 104.109 39.6328C104.109 39.4453 104.086 39.2891 104.039 39.1641C103.93 39.1797 103.797 39.1875 103.641 39.1875H103.383C100.07 39.1875 97.4219 38.5312 95.4375 37.2188C93.1875 35.7344 92.0625 33.6406 92.0625 30.9375C92.0625 28.2344 93.0703 26.0469 95.0859 24.375C97.3203 22.5312 100.391 21.6094 104.297 21.6094C106.219 21.6094 108.008 21.8125 109.664 22.2188C111.336 22.625 112.766 23.1641 113.953 23.8359C114.25 24.4766 114.398 25.4219 114.398 26.6719C114.398 28.5781 113.875 30.0391 112.828 31.0547C112.031 30.6172 111.055 30.2578 109.898 29.9766C108.758 29.6797 107.727 29.5312 106.805 29.5312C105.883 29.5312 105.305 29.5625 105.07 29.625ZM129.516 26.9062V36.1875C129.516 38.5156 130.078 40.0312 131.203 40.7344C131.219 40.8125 131.227 40.9609 131.227 41.1797V41.6016C131.227 43.8984 130.602 45.625 129.352 46.7812C128.195 47.875 126.648 48.4219 124.711 48.4219C122.789 48.4219 121.203 47.875 119.953 46.7812C118.375 45.3906 117.586 43.3594 117.586 40.6875V25.4531C117.867 25.25 118.172 25.0859 118.5 24.9609C118.828 24.8359 119.172 24.6797 119.531 24.4922C118.859 24.1484 118.25 23.5547 117.703 22.7109C117.156 21.8516 116.883 20.8516 116.883 19.7109C116.883 17.7422 117.531 16.1328 118.828 14.8828C120.125 13.6328 121.711 13.0078 123.586 13.0078C125.477 13.0078 127.055 13.6484 128.32 14.9297C129.602 16.1953 130.242 17.7891 130.242 19.7109C130.242 21.2578 129.758 22.6172 128.789 23.7891C127.82 24.9453 126.641 25.6719 125.25 25.9688C125.25 26.5625 125.477 26.8594 125.93 26.8594C126.727 26.8594 127.539 26.5469 128.367 25.9219C128.992 26.4062 129.375 26.7344 129.516 26.9062ZM134.297 33.1875H135.75C136.531 33.1875 136.922 32.9297 136.922 32.4141C136.922 32.3516 136.906 32.2578 136.875 32.1328H131.625C131.281 31.0391 131.109 29.8203 131.109 28.4766C131.109 27.1172 131.211 26.0156 131.414 25.1719C132.305 24.6094 133.531 23.75 135.094 22.5938C135.531 21.5312 136.102 19.8438 136.805 17.5312C136.898 17.2188 137.008 16.9141 137.133 16.6172C138.352 16.3047 139.742 16.1484 141.305 16.1484C142.867 16.1484 144.406 16.3125 145.922 16.6406V22.3828H149.977C150.883 23.7578 151.336 25.375 151.336 27.2344C151.336 28.0781 151.219 28.9453 150.984 29.8359C150.75 30.7266 150.414 31.4844 149.977 32.1094H146.625V35.6484C146.625 37.6484 147.461 38.6484 149.133 38.6484H150.141C150.469 39.8359 150.633 40.8672 150.633 41.7422C150.633 43.8984 149.953 45.5547 148.594 46.7109C147.25 47.8516 145.289 48.4219 142.711 48.4219C140.148 48.4219 138.102 47.7109 136.57 46.2891C135.055 44.8516 134.297 42.7422 134.297 39.9609V33.1875ZM164.438 26.9062V36.1875C164.438 38.5156 165 40.0312 166.125 40.7344C166.141 40.8125 166.148 40.9609 166.148 41.1797V41.6016C166.148 43.8984 165.523 45.625 164.273 46.7812C163.117 47.875 161.57 48.4219 159.633 48.4219C157.711 48.4219 156.125 47.875 154.875 46.7812C153.297 45.3906 152.508 43.3594 152.508 40.6875V25.4531C152.789 25.25 153.094 25.0859 153.422 24.9609C153.75 24.8359 154.094 24.6797 154.453 24.4922C153.781 24.1484 153.172 23.5547 152.625 22.7109C152.078 21.8516 151.805 20.8516 151.805 19.7109C151.805 17.7422 152.453 16.1328 153.75 14.8828C155.047 13.6328 156.633 13.0078 158.508 13.0078C160.398 13.0078 161.977 13.6484 163.242 14.9297C164.523 16.1953 165.164 17.7891 165.164 19.7109C165.164 21.2578 164.68 22.6172 163.711 23.7891C162.742 24.9453 161.562 25.6719 160.172 25.9688C160.172 26.5625 160.398 26.8594 160.852 26.8594C161.648 26.8594 162.461 26.5469 163.289 25.9219C163.914 26.4062 164.297 26.7344 164.438 26.9062ZM178.359 36.5391V37.1016C178.359 37.3672 178.367 37.5547 178.383 37.6641C178.57 37.7422 178.75 37.7812 178.922 37.7812C179.375 37.7812 179.602 37.4766 179.602 36.8672C179.602 35.2734 179.789 32.2734 180.164 27.8672C180.367 25.4766 180.492 24.0703 180.539 23.6484C182.008 22.6641 183.766 22.1719 185.812 22.1719C187.875 22.1719 189.469 22.7188 190.594 23.8125C191.594 24.8125 192.094 26.1094 192.094 27.7031C192.094 28.7812 191.945 29.8984 191.648 31.0547C190.195 36.6641 188.75 41.0781 187.312 44.2969C186.547 45.9688 185.383 47.1094 183.82 47.7188C182.664 48.1875 181.016 48.4219 178.875 48.4219C177.734 48.4219 176.602 48.3281 175.477 48.1406C174.367 47.9531 173.516 47.7344 172.922 47.4844C170.656 42.8594 168.789 37.7422 167.32 32.1328C166.836 31.6484 166.422 30.9688 166.078 30.0938C165.734 29.2188 165.562 28.3125 165.562 27.375C165.562 25.4375 166.031 23.7734 166.969 22.3828C166.969 22.3828 168.914 22.3828 172.805 22.3828C174.852 22.3828 176.375 22.9609 177.375 24.1172C178.125 24.9922 178.609 26.2656 178.828 27.9375C178.516 30.8438 178.359 33.7109 178.359 36.5391ZM206.367 48.7266C202.039 48.7266 198.625 47.5234 196.125 45.1172C193.562 42.6953 192.281 39.3828 192.281 35.1797C192.281 30.9609 193.602 27.6172 196.242 25.1484C198.68 22.8516 201.766 21.7031 205.5 21.7031C209.234 21.7031 212.227 22.7344 214.477 24.7969C216.742 26.8438 217.875 29.3672 217.875 32.3672C217.875 35.0391 216.945 37.0547 215.086 38.4141C213.367 39.6953 211.023 40.3359 208.055 40.3359C205.836 40.3359 203.961 39.875 202.43 38.9531C202.305 39.0469 202.242 39.2188 202.242 39.4688C202.242 39.9375 202.859 40.3672 204.094 40.7578C205.328 41.1797 206.727 41.3906 208.289 41.3906C209.867 41.3906 211.297 41.1953 212.578 40.8047C213.875 40.3984 214.914 39.9219 215.695 39.375C216.07 39.7031 216.367 40.3125 216.586 41.2031C216.82 42.0781 216.938 42.8828 216.938 43.6172C216.938 44.3359 216.867 44.9766 216.727 45.5391C215.508 46.5703 214.258 47.3047 212.977 47.7422C211.164 48.3984 208.961 48.7266 206.367 48.7266ZM206.062 32.8594C206.844 32.8594 207.234 32.5625 207.234 31.9688C207.234 31.4062 206.82 31.125 205.992 31.125C205.164 31.125 204.688 31.5703 204.562 32.4609C205 32.7266 205.5 32.8594 206.062 32.8594ZM231.141 19.7109V36.1875C231.141 38.5156 231.703 40.0312 232.828 40.7344C232.844 40.8125 232.852 40.9609 232.852 41.1797V41.6016C232.852 43.8359 232.281 45.5312 231.141 46.6875C230.016 47.8438 228.414 48.4219 226.336 48.4219C224.258 48.4219 222.609 47.8438 221.391 46.6875C219.938 45.3125 219.211 43.2344 219.211 40.4531V16.1016C220.852 15.1016 222.727 14.6016 224.836 14.6016C226.961 14.6016 228.539 15.0547 229.57 15.9609C230.617 16.8516 231.141 18.1016 231.141 19.7109ZM245.109 36.1641V36.7031C245.109 36.9531 245.117 37.1328 245.133 37.2422C245.289 37.3203 245.461 37.3594 245.648 37.3594C246.102 37.3594 246.328 37.0156 246.328 36.3281C246.328 34.0312 246.453 31.6484 246.703 29.1797C246.969 26.6953 247.25 24.7812 247.547 23.4375C248.812 22.5156 250.5 22.0547 252.609 22.0547C254.719 22.0547 256.344 22.4688 257.484 23.2969C258.641 24.1094 259.219 25.0938 259.219 26.25C259.219 26.7344 258.93 28.7344 258.352 32.25C257.711 35.8281 256.891 39.5938 255.891 43.5469C255.688 44.3438 255.32 45.4609 254.789 46.8984C254.273 48.3359 253.719 49.5312 253.125 50.4844C251.266 53.4375 248.969 55.2656 246.234 55.9688C244.953 56.2969 243.664 56.4609 242.367 56.4609C239.852 56.4609 237.906 55.8359 236.531 54.5859C235.266 53.4609 234.633 52.0625 234.633 50.3906C234.633 48.7344 235.125 47.1719 236.109 45.7031C236.344 45.6406 236.773 45.6094 237.398 45.6094C238.023 45.6094 238.805 45.6875 239.742 45.8438C242.336 46.3281 243.656 46.5703 243.703 46.5703C243.812 46.5859 243.93 46.6094 244.055 46.6406C244.195 46.6562 244.375 46.6641 244.594 46.6641C244.812 46.6641 245 46.6016 245.156 46.4766C245.312 46.3516 245.391 46.1016 245.391 45.7266L239.859 44.6719C238.5 44.1094 237.32 42.9297 236.32 41.1328C235.086 38.9141 234.25 35.9062 233.812 32.1094C232.781 30.7656 232.266 29.1562 232.266 27.2812C232.266 25.4062 232.734 23.7734 233.672 22.3828H239.695C241.711 22.3828 243.219 22.9609 244.219 24.1172C244.953 24.9766 245.422 26.2344 245.625 27.8906C245.281 30.6094 245.109 33.3672 245.109 36.1641Z" fill="#A5CE85"/>
<path d="M41.4141 77.2891V83.2188C40.6953 83.8438 39.7344 84.3672 38.5312 84.7891C37.3438 85.2109 35.8906 85.4219 34.1719 85.4219C32.4688 85.4219 31 85.0391 29.7656 84.2734C28.4062 83.4453 27.7266 82.2656 27.7266 80.7344V56.9219C27.7266 55.4844 31.25 54.7656 38.2969 54.7656H52.0547C52.5078 55.5938 52.8438 56.5234 53.0625 57.5547C53.2812 58.5703 53.3906 59.4844 53.3906 60.2969C53.3906 63.875 51.8203 65.6641 48.6797 65.6641H40.5703C39.9766 65.6641 39.6797 65.9141 39.6797 66.4141V66.5781C39.6797 66.6719 39.6953 66.7344 39.7266 66.7656H50.0859C50.8828 68.125 51.2812 69.6562 51.2812 71.3594C51.2812 73.4844 50.8047 75.1406 49.8516 76.3281H38.3672C38.2422 76.4531 38.1797 76.5938 38.1797 76.75C38.1797 77 38.3672 77.1484 38.7422 77.1953C39.1328 77.2422 39.5703 77.2656 40.0547 77.2656C40.5391 77.2656 40.9922 77.2734 41.4141 77.2891ZM61.4297 85.3047C59.5703 85.3047 58.0859 84.9688 56.9766 84.2969C55.7422 83.5938 55.125 82.5547 55.125 81.1797V69.1094C54.2031 67.8125 53.7422 66.2188 53.7422 64.3281C53.7422 62.4219 54.2031 60.7734 55.125 59.3828H58.7109C60.5547 59.3828 61.875 59.9766 62.6719 61.1641C62.2812 61.6016 61.9375 62.1562 61.6406 62.8281C61.3438 63.5 61.1953 63.9844 61.1953 64.2812C61.1953 64.5625 61.2656 64.7734 61.4062 64.9141C61.5625 65.0547 61.7812 65.125 62.0625 65.125C62.6094 62.9531 63.6484 61.3594 65.1797 60.3438C66.4453 59.4844 68.0078 59.0547 69.8672 59.0547C72.1797 59.0547 73.9922 59.5469 75.3047 60.5312C75.7734 61.7812 76.0078 63.3125 76.0078 65.125C76.0078 66.9219 75.6484 68.5547 74.9297 70.0234C74.3984 70.3047 73.6641 70.5469 72.7266 70.75C71.7891 70.9375 70.8438 71.0312 69.8906 71.0312C68.9375 71.0312 68.0781 70.9688 67.3125 70.8438C66.5625 70.7031 66.0156 70.5781 65.6719 70.4688C65.5469 70.5938 65.4844 70.7734 65.4844 71.0078C65.4844 71.2422 65.6328 71.4219 65.9297 71.5469C66.2422 71.6562 66.7578 71.7812 67.4766 71.9219V83.6875C65.7734 84.7656 63.7578 85.3047 61.4297 85.3047ZM90.4922 85.7266C86.1641 85.7266 82.75 84.5234 80.25 82.1172C77.6875 79.6953 76.4062 76.3828 76.4062 72.1797C76.4062 67.9609 77.7266 64.6172 80.3672 62.1484C82.8047 59.8516 85.8906 58.7031 89.625 58.7031C93.3594 58.7031 96.3516 59.7344 98.6016 61.7969C100.867 63.8438 102 66.3672 102 69.3672C102 72.0391 101.07 74.0547 99.2109 75.4141C97.4922 76.6953 95.1484 77.3359 92.1797 77.3359C89.9609 77.3359 88.0859 76.875 86.5547 75.9531C86.4297 76.0469 86.3672 76.2188 86.3672 76.4688C86.3672 76.9375 86.9844 77.3672 88.2188 77.7578C89.4531 78.1797 90.8516 78.3906 92.4141 78.3906C93.9922 78.3906 95.4219 78.1953 96.7031 77.8047C98 77.3984 99.0391 76.9219 99.8203 76.375C100.195 76.7031 100.492 77.3125 100.711 78.2031C100.945 79.0781 101.062 79.8828 101.062 80.6172C101.062 81.3359 100.992 81.9766 100.852 82.5391C99.6328 83.5703 98.3828 84.3047 97.1016 84.7422C95.2891 85.3984 93.0859 85.7266 90.4922 85.7266ZM90.1875 69.8594C90.9688 69.8594 91.3594 69.5625 91.3594 68.9688C91.3594 68.4062 90.9453 68.125 90.1172 68.125C89.2891 68.125 88.8125 68.5703 88.6875 69.4609C89.125 69.7266 89.625 69.8594 90.1875 69.8594ZM115.992 66.625C115.586 66.75 115.383 66.9922 115.383 67.3516V67.4688C115.383 67.5469 115.391 67.5938 115.406 67.6094C115.578 67.5938 115.805 67.5859 116.086 67.5859H116.648C118.43 67.5859 120.094 67.8594 121.641 68.4062C123.203 68.9375 124.477 69.7969 125.461 70.9844C126.555 72.3281 127.102 74.0234 127.102 76.0703C127.102 79.2578 126 81.6641 123.797 83.2891C121.594 84.9141 118.648 85.7266 114.961 85.7266C111.273 85.7266 108.383 85.1172 106.289 83.8984C104.211 82.6797 103.172 80.8906 103.172 78.5312C103.172 77.6562 103.359 76.8594 103.734 76.1406C104.109 75.4062 104.531 74.8906 105 74.5938C105.859 75.3125 107.102 75.9375 108.727 76.4688C110.367 76.9844 112.102 77.2422 113.93 77.2422C114.664 77.2422 115.031 77.0391 115.031 76.6328C115.031 76.4453 115.008 76.2891 114.961 76.1641C114.852 76.1797 114.719 76.1875 114.562 76.1875H114.305C110.992 76.1875 108.344 75.5312 106.359 74.2188C104.109 72.7344 102.984 70.6406 102.984 67.9375C102.984 65.2344 103.992 63.0469 106.008 61.375C108.242 59.5312 111.312 58.6094 115.219 58.6094C117.141 58.6094 118.93 58.8125 120.586 59.2188C122.258 59.625 123.688 60.1641 124.875 60.8359C125.172 61.4766 125.32 62.4219 125.32 63.6719C125.32 65.5781 124.797 67.0391 123.75 68.0547C122.953 67.6172 121.977 67.2578 120.82 66.9766C119.68 66.6797 118.648 66.5312 117.727 66.5312C116.805 66.5312 116.227 66.5625 115.992 66.625ZM152.883 73.3984C152.883 74.5234 153.008 75.4297 153.258 76.1172C153.508 76.8047 153.945 77.3438 154.57 77.7344C154.586 77.8125 154.594 77.9609 154.594 78.1797V78.6016C154.594 80.7578 153.969 82.4375 152.719 83.6406C151.484 84.8281 149.883 85.4219 147.914 85.4219C145.961 85.4219 144.375 84.8672 143.156 83.7578C141.734 82.4922 141.023 80.5703 141.023 77.9922C141.023 76.8984 141.07 75.9375 141.164 75.1094C141.273 74.2656 141.344 73.6641 141.375 73.3047C141.422 72.9453 141.469 72.6094 141.516 72.2969C141.562 71.9844 141.586 71.5234 141.586 70.9141C141.586 70.3047 141.5 69.8672 141.328 69.6016C141.172 69.3359 140.945 69.2031 140.648 69.2031C140.367 69.2031 140.117 69.2656 139.898 69.3906L140.203 73.2109C139.922 74.7891 139.781 76.4609 139.781 78.2266C139.781 79.9922 140.18 81.6016 140.977 83.0547C139.445 84.6328 137.297 85.4219 134.531 85.4219C132.953 85.4219 131.586 85.0078 130.43 84.1797C129.086 83.2422 128.414 82 128.414 80.4531V53.1016C129.164 52.6641 130.062 52.3047 131.109 52.0234C132.172 51.7422 133.242 51.6016 134.32 51.6016C136.117 51.6016 137.602 51.9531 138.773 52.6562C140.102 53.4844 140.766 54.6719 140.766 56.2188V58.4453C139.406 58.5234 138.102 58.9141 136.852 59.6172C135.773 60.2422 135.234 60.8125 135.234 61.3281C135.234 61.5 135.297 61.6562 135.422 61.7969C135.547 61.9219 135.695 62 135.867 62.0312C136.523 61.2656 137.445 60.625 138.633 60.1094C139.836 59.5938 141.258 59.3359 142.898 59.3359C144.539 59.3359 146.016 59.5859 147.328 60.0859C148.984 60.7109 150.289 61.6641 151.242 62.9453C152.383 64.5078 152.953 66.4688 152.953 68.8281L152.883 73.3984Z" fill="#72A847"/>
</svg>
